<svg width="23" height="23" viewBox="0 0 23 23" fill="none" xmlns="http://www.w3.org/2000/svg">
<path d="M10.0995 19.5478C10.5574 19.5664 11.0251 19.5761 11.5 19.5761C17.2992 19.5761 22 18.1295 22 16.3453C22 15.3107 20.4202 14.3899 17.9632 13.7987M1.8085 15.1007C1.28754 15.4835 1 15.9043 1 16.3453C1 17.5916 3.29385 18.6731 6.65385 19.2118M13.9231 4.23077H4.23077V13.9231H13.9231V4.23077ZM13.9231 4.23077L17.9615 1" stroke="#fff" stroke-width="1.5" stroke-miterlimit="10" stroke-linecap="round" stroke-linejoin="round"/>
<path d="M13.923 13.9231L17.9615 10.6923V1H8.26917L4.23071 4.23077M12.3076 17.1538L9.88456 19.5769L12.3076 22" stroke="#fff" stroke-width="1.5" stroke-miterlimit="10" stroke-linecap="round" stroke-linejoin="round"/>
</svg>
