<svg width="18" height="18" viewBox="0 0 18 18" fill="none" xmlns="http://www.w3.org/2000/svg">
<path d="M8.2125 13.1625C8.325 13.275 8.4375 13.3875 8.55 13.3875C8.6625 13.5 8.8875 13.5 9 13.5C9.1125 13.5 9.3375 13.5 9.45 13.3875C9.5625 13.275 9.675 13.275 9.7875 13.1625L14.2875 8.6625C14.7375 8.2125 14.7375 7.5375 14.2875 7.0875C13.8375 6.6375 13.1625 6.6375 12.7125 7.0875L10.125 9.675V1.125C10.125 0.45 9.675 0 9 0C8.325 0 7.875 0.45 7.875 1.125V9.675L5.2875 7.0875C4.8375 6.6375 4.1625 6.6375 3.7125 7.0875C3.2625 7.5375 3.2625 8.2125 3.7125 8.6625L8.2125 13.1625Z" fill="white"/>
<path d="M16.875 10.125C16.2 10.125 15.75 10.575 15.75 11.25V13.5C15.75 14.7375 14.7375 15.75 13.5 15.75H4.5C3.2625 15.75 2.25 14.7375 2.25 13.5V11.25C2.25 10.575 1.8 10.125 1.125 10.125C0.45 10.125 0 10.575 0 11.25V13.5C0 15.975 2.025 18 4.5 18H13.5C15.975 18 18 15.975 18 13.5V11.25C18 10.575 17.55 10.125 16.875 10.125Z" fill="white"/>
</svg>
