<svg width="26" height="18" viewBox="0 0 26 18" fill="none" xmlns="http://www.w3.org/2000/svg">
<path d="M23.8232 4.7882H15.1118V2.17277C15.1118 0.978769 14.1412 0.00407358 12.9431 0.00407358L2.1687 1.26455e-05C0.974696 -0.00404859 0 0.970647 0 2.16465V9.06468C0 10.2587 0.970634 11.2334 2.1687 11.2334H2.57076V12.4517C2.57076 12.667 2.68853 12.8619 2.87941 12.9635C2.9728 13.0135 3.07802 13.0374 3.18387 13.0323C3.28973 13.0273 3.39223 12.9937 3.48047 12.935L6.02687 11.2334H10.8841V13.8529C10.8841 15.0469 11.8547 16.0175 13.0487 16.0175H19.9691L22.5155 17.7232C22.6037 17.7819 22.7062 17.8155 22.8121 17.8205C22.9179 17.8255 23.0231 17.8017 23.1165 17.7517C23.3074 17.6501 23.4252 17.4552 23.4252 17.2399V16.0216H23.8272C25.0253 16.0216 25.9959 15.0509 26 13.8569V6.96096C25.9919 5.7629 25.0172 4.7882 23.8232 4.7882ZM11.4811 10.0678H5.84411C5.7304 10.0678 5.61668 10.1003 5.51921 10.1653L3.73227 11.3593V10.6486C3.73227 10.3277 3.47235 10.0678 3.15152 10.0678H2.1687C1.61637 10.0678 1.16557 9.61701 1.16557 9.06468V2.16465C1.16557 1.61232 1.61637 1.16152 2.1687 1.16152L12.9431 1.16559C13.4955 1.16559 13.9463 1.61638 13.9463 2.16871V9.06468C13.9463 9.61701 13.4955 10.0678 12.9431 10.0678H11.4811ZM24.8263 13.8569C24.8263 14.4093 24.3755 14.8601 23.8191 14.8601H22.8363C22.5155 14.8601 22.2555 15.12 22.2555 15.4408V16.1515L20.4686 14.9535C20.3711 14.8885 20.2615 14.856 20.1437 14.856H13.0447C12.4923 14.856 12.0415 14.4052 12.0415 13.8529V11.2334H12.9391C14.1331 11.2334 15.1078 10.2627 15.1078 9.06468V5.94566H23.8191C24.0862 5.94566 24.3424 6.05177 24.5313 6.24065C24.7202 6.42954 24.8263 6.68572 24.8263 6.95284V13.8569Z" fill="white"/>
<path d="M9.48709 7.26865C9.46126 7.24602 9.43075 7.22938 9.39774 7.21992C9.36119 7.20773 9.3084 7.18743 9.24342 7.159C9.17844 7.13057 9.10127 7.08996 9.0038 7.0331C8.9104 6.97624 8.80074 6.89502 8.67891 6.78943C8.76013 6.7082 8.83323 6.61479 8.89415 6.5092C8.95913 6.40361 9.01193 6.28583 9.05254 6.15587C9.09721 6.02591 9.1297 5.88783 9.15001 5.73757C9.17438 5.5873 9.1825 5.42485 9.1825 5.25428C9.1825 4.92126 9.14189 4.63697 9.06472 4.3933C8.98756 4.14962 8.87384 3.95062 8.71952 3.79224C8.56925 3.63385 8.38244 3.51607 8.16313 3.43891C7.94382 3.36175 7.68797 3.3252 7.40368 3.3252C7.09909 3.3252 6.83105 3.36987 6.60362 3.46328C6.37213 3.55669 6.18125 3.69071 6.02286 3.86128C5.86853 4.03591 5.75076 4.24303 5.66953 4.49077C5.59237 4.7385 5.55176 5.01873 5.55176 5.32738C5.55176 5.66853 5.58831 5.965 5.66141 6.21273C5.73451 6.46047 5.84823 6.66353 5.99443 6.82598C6.14064 6.98436 6.32745 7.10214 6.55082 7.1793C6.77419 7.25647 7.03411 7.29302 7.33058 7.29302C7.48896 7.29302 7.63111 7.27677 7.76107 7.24834C7.89103 7.21585 8.00068 7.18336 8.09003 7.13869C8.19968 7.26459 8.31746 7.37424 8.44335 7.46765C8.56925 7.56512 8.69515 7.64634 8.81699 7.71132C8.93882 7.7763 9.05254 7.8291 9.15813 7.86565C9.26372 7.9022 9.34901 7.91845 9.41399 7.91845C9.43023 7.91845 9.44648 7.91439 9.45866 7.90626C9.47085 7.89814 9.48709 7.88596 9.49521 7.86159C9.50924 7.82919 9.51881 7.79503 9.52364 7.76006C9.53176 7.71539 9.53583 7.65853 9.53583 7.58949C9.53583 7.50014 9.53176 7.4311 9.51958 7.38237C9.5074 7.33363 9.51146 7.28896 9.48709 7.26865ZM8.32152 5.81879C8.28903 5.98124 8.23217 6.12744 8.15501 6.24928C8.07784 6.37112 7.97225 6.46859 7.84229 6.53763C7.71233 6.61073 7.55394 6.64322 7.36307 6.64322C7.17219 6.64322 7.0138 6.61073 6.8879 6.54981C6.762 6.48889 6.66047 6.39549 6.58737 6.27771C6.50678 6.14603 6.45295 5.99974 6.42898 5.84722C6.39469 5.65968 6.37837 5.46929 6.38025 5.27865C6.38025 5.09995 6.39649 4.93344 6.42898 4.77099C6.46147 4.60854 6.51833 4.47046 6.59549 4.34863C6.67266 4.22679 6.77825 4.13338 6.90821 4.06028C7.03817 3.98718 7.19656 3.95469 7.38743 3.95469C7.57831 3.95469 7.7367 3.98718 7.8626 4.05216C7.9885 4.11714 8.09003 4.20648 8.16719 4.32426C8.24435 4.44203 8.29715 4.58418 8.32964 4.74663C8.36213 4.90908 8.37837 5.09183 8.37837 5.29083C8.37431 5.47765 8.35401 5.65228 8.32152 5.81879ZM18.9985 8.49514C18.9894 8.46155 18.9743 8.42989 18.9538 8.40173C18.9376 8.37737 18.9051 8.36112 18.8645 8.34894C18.8089 8.33415 18.7514 8.32731 18.6939 8.32863C18.6208 8.32457 18.5233 8.32457 18.3974 8.32457C18.2918 8.32457 18.2066 8.32457 18.1416 8.32863C18.0766 8.33269 18.0279 8.34082 17.9913 8.34894C17.9548 8.36112 17.9263 8.37737 17.9101 8.39767C17.8938 8.41798 17.8776 8.44641 17.8654 8.48296L16.6146 12.0812C16.5902 12.1543 16.5739 12.2112 16.5658 12.2558C16.5577 12.3005 16.5658 12.333 16.5861 12.3574C16.6064 12.3817 16.643 12.398 16.6998 12.402C16.7526 12.4102 16.8298 12.4102 16.9273 12.4102C17.0166 12.4102 17.0897 12.4061 17.1466 12.402C17.2034 12.398 17.244 12.3899 17.2765 12.3777C17.305 12.3655 17.3293 12.3492 17.3415 12.3289C17.3555 12.3061 17.3664 12.2815 17.374 12.2558L17.6299 11.4639H19.1528L19.4249 12.2802C19.433 12.3086 19.4452 12.3289 19.4574 12.3452C19.4696 12.3614 19.4899 12.3736 19.5224 12.3858C19.5549 12.3939 19.5996 12.402 19.6605 12.4061C19.7214 12.4102 19.8026 12.4102 19.9082 12.4102C20.0097 12.4102 20.091 12.4061 20.1478 12.402C20.2047 12.398 20.2453 12.3817 20.2697 12.3614C20.294 12.3411 20.3021 12.3086 20.294 12.264C20.2833 12.203 20.2669 12.1432 20.2453 12.0853L18.9985 8.49514ZM17.8167 10.8385L18.3893 9.11651H18.3934L18.966 10.8385H17.8167Z" fill="white"/>
</svg>
