<svg width="21" height="18" viewBox="0 0 21 18" fill="none" xmlns="http://www.w3.org/2000/svg">
<path d="M7.58878 0C5.36957 0 3.56361 1.86508 3.56361 4.15385V6.92308C3.56361 8.21631 4.15129 9.36 5.05427 10.1215C3.61203 10.6537 2.35851 11.6217 1.457 12.8995C0.555487 14.1773 0.0477749 15.7057 0 17.2855C0 17.6483 0.31933 18 0.670861 18H12.1157C11.3376 17.833 10.624 17.4344 10.0629 16.8535L9.85226 16.6362L1.50944 16.5946C1.95757 13.4903 4.45854 11.106 7.5445 11.07C7.55792 11.0714 7.57268 11.0769 7.58878 11.0769C7.65452 11.0769 7.7149 11.0589 7.7793 11.0548H7.79809C8.42869 11.0742 9.03784 11.2445 9.60136 11.4438L10.0629 10.9689L10.6492 10.3625C10.4681 10.2794 10.2655 10.2295 10.075 10.1603C10.5521 9.77597 10.9384 9.28496 11.205 8.72422C11.4716 8.16349 11.6114 7.54765 11.6139 6.92308V4.15385C11.6139 1.86508 9.80664 0 7.58878 0ZM7.58878 1.38462C9.08614 1.38462 10.2722 2.60723 10.2722 4.15385V6.92308C10.2761 7.61994 10.0224 8.29211 9.56264 8.80256C9.10291 9.313 8.47184 9.62329 7.79809 9.67015H7.7954C7.67867 9.66739 7.56597 9.67708 7.44924 9.67846C6.76205 9.64836 6.11296 9.34439 5.63851 8.8305C5.16406 8.31661 4.90124 7.63286 4.90533 6.92308V4.15385C4.90533 2.60723 6.09008 1.38462 7.58878 1.38462ZM17.6571 4.14277L14.8072 7.08231L16.2187 8.54031C16.5582 8.892 16.4871 8.99723 16.4294 9.16754C16.3703 9.33785 16.2456 9.47077 16.2456 9.47077L16.2321 9.48462L13.3474 12.4615L13.3394 12.4754C13.3394 12.4754 13.1905 12.6208 13.0147 12.6886C12.8376 12.7565 12.7651 12.8298 12.474 12.5183H12.4686L11.0061 11.0091L9.58392 12.4795L8.15901 13.9486L10.5298 16.3994C11.1597 17.0466 12.0124 17.41 12.9013 17.41C13.7902 17.41 14.6429 17.0466 15.2728 16.3994L20.0131 11.5089C20.6419 10.8592 20.9975 9.97924 21 9.06101C21.0025 8.14278 20.6531 7.26078 20.0279 6.60739L17.6571 4.15662V4.14277ZM17.6571 6.10062L19.0793 7.56831C19.2679 7.76183 19.4173 7.99211 19.5188 8.24577C19.6203 8.49942 19.672 8.77138 19.6707 9.04582C19.6695 9.32026 19.6154 9.59171 19.5115 9.84437C19.4077 10.097 19.2562 10.3259 19.0659 10.5175L14.3256 15.4094C14.1401 15.6045 13.9188 15.7594 13.6746 15.8652C13.4304 15.971 13.1682 16.0255 12.9033 16.0255C12.6385 16.0255 12.3763 15.971 12.1321 15.8652C11.8879 15.7594 11.6666 15.6045 11.4811 15.4094L10.0575 13.9375L10.5339 13.4488L11.0088 12.9558L11.5093 13.4723H11.5147C12.1278 14.1245 12.9704 14.1771 13.4843 13.9791C14.0009 13.7797 14.3162 13.4155 14.3162 13.4155L17.1472 10.4926C17.1472 10.4926 17.5095 10.1686 17.696 9.62723C17.8825 9.08585 17.8114 8.22462 17.1727 7.56138L16.7058 7.07954L17.6571 6.10062Z" fill="white"/>
</svg>
