<svg width="26" height="25" viewBox="0 0 26 25" fill="none" xmlns="http://www.w3.org/2000/svg">
<path d="M0.557617 3.31733C0.557617 2.51768 0.840803 1.85798 1.40715 1.33824C1.9735 0.818467 2.70977 0.558594 3.61593 0.558594C4.50593 0.558594 5.22599 0.814461 5.77617 1.32624C6.34252 1.854 6.62571 2.54167 6.62571 3.3893C6.62571 4.15695 6.35063 4.79664 5.80045 5.30842C5.2341 5.83618 4.48974 6.10006 3.56739 6.10006H3.54312C2.65312 6.10006 1.93306 5.83618 1.38288 5.30842C0.832696 4.78067 0.557617 4.11696 0.557617 3.31733ZM0.873158 24.3077V8.28307H6.26162V24.3077H0.873158ZM9.24712 24.3077H14.6356V15.3598C14.6356 14.8001 14.7003 14.3683 14.8298 14.0644C15.0563 13.5207 15.4002 13.0609 15.8613 12.6851C16.3225 12.3092 16.901 12.1213 17.5968 12.1213C19.4092 12.1213 20.3153 13.3288 20.3153 15.7437V24.3077H25.7038V15.1199C25.7038 12.753 25.1374 10.9578 24.0047 9.7344C22.872 8.51096 21.3752 7.89924 19.5143 7.89924C17.4269 7.89924 15.8007 8.78684 14.6356 10.562V10.61H14.6113L14.6356 10.562V8.28307H9.24712C9.27948 8.79482 9.29567 10.3861 9.29567 13.0569C9.29567 15.7277 9.27948 19.4779 9.24712 24.3077Z" fill="white"/>
</svg>
